<?xml version="1.0" encoding="UTF-8"?>
<svg width="259px" height="209px" viewBox="0 0 259 209" version="1.1" xmlns="http://www.w3.org/2000/svg" xmlns:xlink="http://www.w3.org/1999/xlink">
    <!-- Generator: Sketch 51.3 (57544) - http://www.bohemiancoding.com/sketch -->
    <title>Slice 1</title>
    <desc>Created with Sketch.</desc>
    <defs></defs>
    <g id="Page-1" stroke="none" stroke-width="1" fill="none" fill-rule="evenodd">
        <g id="Head">
            <g id="Right-Ear" transform="translate(0.000000, 1.000000)">
                <path d="M55,85.5 C81.509668,85.5 89,74.509668 89,48 C89,21.490332 74.509668,0 48,0 C21.490332,0 0,21.490332 0,48 C0,74.509668 28.490332,85.5 55,85.5 Z" id="Oval-3" fill="#000000"></path>
                <path d="M57.9325843,79.5 C76.6978549,79.5 82,71.7203268 82,52.9550562 C82,34.1897856 71.7427987,18.9775281 52.9775281,18.9775281 C34.2122575,18.9775281 19,34.1897856 19,52.9550562 C19,71.7203268 39.1673137,79.5 57.9325843,79.5 Z" id="Oval-3" fill="#2E2C2C"></path>
            </g>
            <g id="Right-Ear" transform="translate(170.000000, 0.000000)">
                <path d="M55,85.5 C81.509668,85.5 89,74.509668 89,48 C89,21.490332 74.509668,0 48,0 C21.490332,0 0,21.490332 0,48 C0,74.509668 28.490332,85.5 55,85.5 Z" id="Oval-3" fill="#000000" transform="translate(44.500000, 42.750000) scale(-1, 1) translate(-44.500000, -42.750000) "></path>
                <path d="M45.9325843,78.5224719 C64.6978549,78.5224719 70,70.7427987 70,51.9775281 C70,33.2122575 59.7427987,18 40.9775281,18 C22.2122575,18 7,33.2122575 7,51.9775281 C7,70.7427987 27.1673137,78.5224719 45.9325843,78.5224719 Z" id="Oval-3" fill="#2E2C2C" transform="translate(38.500000, 48.261236) scale(-1, 1) translate(-38.500000, -48.261236) "></path>
            </g>
            <path d="M130,208 C189.093098,208 235,182.987435 235,128.644167 C235,74.3008991 189.093098,23 130,23 C70.9069022,23 25,74.3008991 25,128.644167 C25,182.987435 70.9069022,208 130,208 Z" id="Combined-Shape" stroke="#979797" stroke-width="0.05" fill="#EAEAEA"></path>
            <g id="Group" transform="translate(74.000000, 87.000000)">
                <path d="M57.5293278,107 C74.5866361,107 87.0860377,102.061242 97.377753,95.126771 C107.879329,88.0508977 116,78.821055 116,62.9510614 C116,31.5282163 91.9917646,0 57.5293278,0 C23.0668911,0 0,31.5282163 0,62.9510614 C0,76.5477726 6.3798605,83.6852247 14.0719612,90.7431987 C24.1567833,99.9966415 37.9788382,107 57.5293278,107 Z" id="Oval" fill="#D9D9D9"></path>
                <path d="M54.1210255,33.8162908 L43.7331513,26.4961863 C41.8766518,25.1879523 41.4321948,22.6224289 42.7404288,20.7659295 C43.62487,19.5108294 45.134865,18.8529925 46.6562692,19.0599738 C52.7292091,19.886174 56.4307437,20.2992743 57.7608732,20.2992743 C59.0350644,20.2992743 62.2036689,19.920189 67.2666866,19.1620185 L67.2666794,19.1619701 C69.5208609,18.8244137 71.6218797,20.3781454 71.9594361,22.6323269 C72.1798086,24.1039618 71.5909007,25.5802802 70.4181308,26.4961863 L61.2702424,33.6404748 C59.186258,35.2680184 56.2824926,35.3394287 54.1210255,33.8162908 Z" id="Triangle" fill="#000000"></path>
            </g>
            <g id="Left-Eye" transform="translate(153.000000, 72.000000)">
                <circle id="Oval-2" fill="#000000" cx="23" cy="23" r="23"></circle>
                <circle id="Oval-2" fill="#FFFFFF" cx="14.5" cy="13.5" r="5.5"></circle>
                <g id="Group-2" transform="translate(4.000000, 3.000000)" stroke="#F8F8F8" stroke-width="2">
                    <circle id="Oval-2" cx="19.5" cy="19.5" r="19.5"></circle>
                </g>
            </g>
            <g id="Right-Eye" transform="translate(61.000000, 72.000000)">
                <circle id="Black" fill="#000000" cx="23" cy="23" r="23"></circle>
                <circle id="Light" fill="#FFFFFF" cx="30.5" cy="11.5" r="5.5"></circle>
                <circle id="Circle" stroke="#F8F8F8" stroke-width="2" cx="23.5" cy="22.5" r="19.5"></circle>
            </g>
        </g>
        <path d="M100.4095,145.467844 C113.717935,140.489281 123.914768,138 131,138 C138.085232,138 148.282065,140.489281 161.5905,145.467844 L161.590505,145.46783 C162.438197,145.784943 163,146.594935 163,147.5 L163,147.5 C163,148.080263 162.529604,148.550659 161.949341,148.550659 C161.827779,148.550659 161.707139,148.529563 161.592791,148.48831 C147.755038,143.496106 137.557442,141 131,141 C124.442558,141 114.244962,143.496106 100.407212,148.488317 L100.407209,148.48831 C99.8613807,148.685227 99.2592664,148.402379 99.0623492,147.85655 C99.021096,147.742202 99,147.621562 99,147.5 L99,147.5 C99,146.594935 99.5618025,145.784943 100.409495,145.46783 Z" id="Frown" fill="#000000" transform="translate(131.000000, 143.275473) scale(1, -1) translate(-131.000000, -143.275473) "></path>
    </g>
</svg>